<svg id="Layer_1" data-name="Layer 1" xmlns="http://www.w3.org/2000/svg" viewBox="0 0 709 709"><defs><style>.cls-1{fill:#d8d8d8;}.cls-2{fill:#d2d2d1;}.cls-10,.cls-11,.cls-2,.cls-3,.cls-4,.cls-5,.cls-6,.cls-7,.cls-8,.cls-9{fill-rule:evenodd;}.cls-3{fill:#43b649;}.cls-4{fill:#424242;}.cls-5{fill:#60bc56;}.cls-6{fill:#84c668;}.cls-7{fill:#4f9d4d;}.cls-8{fill:#fcf6b0;}.cls-9{fill:#ffca6a;}.cls-10{fill:#e7e7e7;}.cls-11{fill:#fff;}</style></defs><rect class="cls-1" x="57.225" y="56.225" width="595.549" height="595.549" rx="60.585"/><path class="cls-2" d="M73.63,74.436a60.4,60.4,0,0,1,43.3-18.211H591.31A60.585,60.585,0,0,1,651.9,116.81V591.19a60.43,60.43,0,0,1-20.009,44.991C582.074,586.369,162.63,163.437,73.63,74.436Z"/><path class="cls-3" d="M369.35,511.775a21.9,21.9,0,0,1-16.137,6.87,25.98,25.98,0,0,1-13.723-3.576V504.59c3.526,2.389,7.949,4.665,12.319,4.665,9.107,0,14.532-6.269,14.532-15.153s-5.612-15.35-14.721-15.35a12.613,12.613,0,0,0-9.949,4.395c-2.763,3.179-4.19,7.721-4.19,13.725v41.38h-.687a9.091,9.091,0,0,1-9.09-9.089V495.32c0-14.36,8.782-25.955,23.872-25.955,7.447,0,13.5,2.546,18.087,7.664,4.314,4.78,6.454,10.843,6.454,18.134a22.8,22.8,0,0,1-6.767,16.612Zm105.847-.348a22.57,22.57,0,0,1-17.266,7.218c-7.386,0-13.41-2.55-17.992-7.667-4.31-4.84-6.454-10.905-6.454-18.133,0-12.792,9.878-23.48,22.865-23.48a27.427,27.427,0,0,1,13.765,3.468v10.584c-3.529-2.389-7.954-4.665-12.319-4.665-9.108,0-14.533,6.268-14.533,15.155,0,8.772,5.739,15.348,14.718,15.348a12.816,12.816,0,0,0,10.1-4.594c2.66-3.052,4.044-7.533,4.044-13.554V458.171a9.092,9.092,0,0,1,9.094-9.09h.682v43.57c0,7.675-2.219,13.954-6.7,18.776Zm27.6-46.715a5.489,5.489,0,0,1-4.294,1.679,5.6,5.6,0,0,1-5.753-5.805,5.453,5.453,0,0,1,5.753-5.709,5.6,5.6,0,0,1,5.759,5.709,5.987,5.987,0,0,1-1.465,4.126Zm49.67,26.4a11.113,11.113,0,0,0-4.391-9.217,15.548,15.548,0,0,0-9.942-3.138c-8.847,0-14.526,6.916-14.526,15.443,0,8.212,6.017,15.06,14.436,15.06,5.849,0,8.982-3.421,12.32-7.677v12.28a27.086,27.086,0,0,1-5.657,3.477,19.464,19.464,0,0,1-7.526,1.31c-14.07,0-23.35-11.655-23.35-25.124,0-6.915,2.148-12.631,6.472-17.091,4.591-4.722,10.606-7.065,17.976-7.065,13.971,0,23.966,8.02,23.966,22.513v25.8h-.688a9.09,9.09,0,0,1-9.09-9.089V491.107Zm-133.82-2.767a11.755,11.755,0,0,0-6.351-7.69c-8.468-4.736-16.8-.707-20.685,7.651l27.036.039Zm-7.46,30.161a25.684,25.684,0,0,1-18.348-3.035,24.131,24.131,0,0,1-11.694-14.5c-3.956-12.942,4.151-27.364,17.186-30.859a24,24,0,0,1,18.547,2.346c9.779,5.464,13.342,13.919,12.721,24.814l-39.386-.082a13.536,13.536,0,0,0,7.206,10.084c3.924,2.194,7.535,2.718,10.887,1.679,3.715-1.168,6.731-4.2,9.185-7.026l8.028,5.848c-3.277,5.857-7.735,9.325-14.332,10.731Zm82.43-48.171H503.4v47.349h-.684a9.091,9.091,0,0,1-9.09-9.089Z"/><path class="cls-3" d="M162.057,517.679c-9.558,0-14.3-6.5-14.3-15.586V467.636a9.088,9.088,0,0,1,9.091-9.089h.685V470.33h16.516v9.39H157.529v23.46c0,3.99,1.782,5.111,5.592,5.111h10.924v9.388Zm56.776-5.987a25.073,25.073,0,0,1-34.66,0,23.47,23.47,0,0,1-7.264-17.687,24.662,24.662,0,0,1,41.874-17.641,25.053,25.053,0,0,1,.05,35.328Zm45.7-29.97q-2.149,3.608-3.326,5.172a13.525,13.525,0,0,1-2.557,2.662c6.793,2.2,9.324,6.9,9.324,13.916v14.207h-.688a9.091,9.091,0,0,1-9.091-9.089v-4.156c0-4.537-2.033-7.62-6.845-7.62h-8.879v20.865h-.684a9.09,9.09,0,0,1-9.091-9.089V458.171a9.091,9.091,0,0,1,9.091-9.09h.684v38.247h2.889c3.174,0,5.264-1.083,6.459-3.138l8.213-13.859,11.14-.009-6.639,11.4ZM315,511.692a25.075,25.075,0,0,1-34.661,0,23.477,23.477,0,0,1-7.259-17.687,24.661,24.661,0,0,1,41.873-17.641A25.051,25.051,0,0,1,315,511.692Zm-7.056-28.7a13.629,13.629,0,0,0-10.323-4.235c-9,0-14.381,6.56-14.381,15.253,0,8.572,5.514,15.25,14.381,15.25S312,502.577,312,494.005a15.251,15.251,0,0,0-4.057-11.018Zm-96.168,0a13.623,13.623,0,0,0-10.321-4.235c-9,0-14.38,6.56-14.38,15.253,0,8.572,5.514,15.25,14.38,15.25s14.383-6.678,14.383-15.25A15.242,15.242,0,0,0,211.774,482.987Z"/><path class="cls-4" d="M355.048,225.761c11.395-5.695,25.218-8.8,37.867-9.9l14.215-1.236c15.569-1.34,31.15-.519,46.737-.519h8.55V340.9a71.427,71.427,0,0,1-71.24,71.227H247.585V214.109h8.543c15.607,0,31.129-1.024,46.732.185l14.212,1.076A98.979,98.979,0,0,1,355.048,225.761Z"/><path class="cls-5" d="M256.128,222.656V403.582H391.177a62.874,62.874,0,0,0,62.69-62.685V222.656c-14.981,0-30.8-.367-46,.492l-14.219,1.226c-13.913,1.692-27.988,4.939-38.653,11.093-11.512-6.652-24.069-9.959-38.571-11.585L302.213,222.8C286.711,222.081,270.818,222.656,256.128,222.656Z"/><path class="cls-6" d="M273.857,403.582h117.32a62.353,62.353,0,0,0,40.21-14.7,83.154,83.154,0,0,0-157.53,14.7Z"/><path class="cls-7" d="M355,403.582l36.91-.546A61.84,61.84,0,0,0,453.867,340.9V222.656c-14.981,0-30.8-.367-46,.492l-14.219,1.226c-13.913,1.692-27.988,4.939-38.653,11.093Z"/><path class="cls-5" d="M355,403.582h36.409a61.739,61.739,0,0,0,39.983-14.691C418.8,359.637,388.756,339.062,355,338.61Z"/><path class="cls-4" d="M407.87,217.226a53.15,53.15,0,0,0-105.657-.332l14.214,1.083a38.9,38.9,0,0,1,77.224.473Z"/><path class="cls-4" d="M378.12,346.937q-9.291,9.823-18.571,19.663L355,371.427l-4.549-4.827q-9.288-9.822-18.569-19.663l-3.208-3.4,2.342-4.042c4.968-8.564,14.257-13.171,23.984-13.171s19.018,4.607,23.987,13.171l2.346,4.042Z"/><path class="cls-8" d="M373.56,342.64Q364.293,352.474,355,362.3q-9.281-9.839-18.569-19.662c3.91-6.74,11.249-10.07,18.569-10.059C362.317,332.57,369.654,335.9,373.56,342.64Z"/><path class="cls-9" d="M373.56,342.64Q364.293,352.474,355,362.3V332.581C362.317,332.57,369.654,335.9,373.56,342.64Z"/><path class="cls-4" d="M308.6,247.315a50.232,50.232,0,1,1-50.223,50.231A50.246,50.246,0,0,1,308.6,247.315Z"/><path class="cls-10" d="M308.6,255.862a41.685,41.685,0,1,1-41.685,41.684A41.692,41.692,0,0,1,308.6,255.862Z"/><path class="cls-11" d="M308.6,255.862a41.715,41.715,0,0,1,40.054,30.1,41.7,41.7,0,0,1-80.1,0A41.7,41.7,0,0,1,308.6,255.862Z"/><path class="cls-4" d="M401.4,247.315a50.232,50.232,0,1,1-50.233,50.231A50.239,50.239,0,0,1,401.4,247.315Z"/><path class="cls-10" d="M401.4,255.862a41.685,41.685,0,1,1-41.682,41.684A41.692,41.692,0,0,1,401.4,255.862Z"/><path class="cls-11" d="M401.4,255.862a41.7,41.7,0,0,1,40.044,30.1,41.7,41.7,0,0,1-80.1,0A41.713,41.713,0,0,1,401.4,255.862Z"/><path class="cls-4" d="M313.837,271.624A26.918,26.918,0,1,1,290.6,284.941a12.969,12.969,0,1,0,21.881-13.289C312.928,271.624,313.387,271.624,313.837,271.624Z"/><path class="cls-4" d="M396.147,271.624a26.888,26.888,0,1,1-23.239,13.317A12.972,12.972,0,1,0,394.8,271.652C395.252,271.624,395.7,271.624,396.147,271.624Z"/></svg>