<svg id="Layer_1" data-name="Layer 1" xmlns="http://www.w3.org/2000/svg" viewBox="0 0 709 709"><defs><style>.cls-1{fill:#d8d8d8;}.cls-2{fill:#d2d2d1;}.cls-2,.cls-3{fill-rule:evenodd;}.cls-3{fill:#f05123;}</style></defs><rect class="cls-1" x="56.725" y="56.725" width="595.549" height="595.549" rx="60.585"/><path class="cls-2" d="M73.13,74.936a60.4,60.4,0,0,1,43.3-18.211H590.81A60.585,60.585,0,0,1,651.4,117.31V591.69a60.43,60.43,0,0,1-20.009,44.991C581.574,586.869,162.13,163.937,73.13,74.936Z"/><path class="cls-3" d="M326.256,459.955a25.26,25.26,0,1,1-17.859,7.4,25.18,25.18,0,0,1,17.859-7.4Zm-96.679-26.093a3.574,3.574,0,0,1-3.808,6.048c-.047-.028-.093-.056-.138-.086a30.786,30.786,0,0,0-8.287-3.735,33.6,33.6,0,0,0-9.32-1.369,18.293,18.293,0,0,0-10.034,2.99,14.692,14.692,0,0,0-4.506,4.6,10.71,10.71,0,0,0-1.6,5.547,11.764,11.764,0,0,0,2.139,6.489c2.64,3.981,8.41,6.5,14.642,8.973l1.789.705c5.96,2.34,12.087,4.747,16.995,8.616a21.686,21.686,0,0,1,6.8,8.743,18.35,18.35,0,0,1,1.126,10.167,20.855,20.855,0,0,1-4.251,9.344,26.6,26.6,0,0,1-10.862,8c-6.2,2.551-13.055,2.509-19.483.939a44.782,44.782,0,0,1-19.208-10.146,3.575,3.575,0,0,1,4.87-5.234,37.325,37.325,0,0,0,16.017,8.44c5.09,1.242,10.423,1.316,15.089-.6a19.437,19.437,0,0,0,7.951-5.813,13.706,13.706,0,0,0,2.824-6.124,11.264,11.264,0,0,0-.678-6.248,14.62,14.62,0,0,0-4.618-5.834c-4.1-3.227-9.713-5.434-15.176-7.579-1.191-.468-2.374-.933-3.541-1.407-6.642-2.7-12.724-5.672-16.249-10.987a18.79,18.79,0,0,1-3.314-10.435,17.732,17.732,0,0,1,2.606-9.213,21.872,21.872,0,0,1,6.69-6.892,25.481,25.481,0,0,1,13.98-4.167,40.72,40.72,0,0,1,11.307,1.65,38.05,38.05,0,0,1,10.246,4.63Zm21.892,33.463c4.061-3.881,9.876-7.624,17.2-7.624a22.507,22.507,0,0,1,14.268,5.056c3.57,2.965,7.043,8.535,7.043,13.274v30.2a3.583,3.583,0,1,1-7.166,0V478.939a11.965,11.965,0,0,0-4.438-8.7,15.012,15.012,0,0,0-9.707-3.041c-9.316,0-15.54,8.61-17.2,11.3v29.722a3.583,3.583,0,1,1-7.165,0V429.677a3.583,3.583,0,1,1,7.165,0v37.648Zm269.508,33.412a3.567,3.567,0,0,1,3.555,6.186,35.186,35.186,0,0,1-9.121,3.718,31.916,31.916,0,0,1-10.286.825,27.253,27.253,0,0,1-4.748-.81,24.9,24.9,0,0,1-14.437-10.214,26.594,26.594,0,0,1-4.362-17.049,28.8,28.8,0,0,1,.862-5,25.078,25.078,0,0,1,2.422-5.958v-.014a24.357,24.357,0,0,1,11.608-10.4,23.58,23.58,0,0,1,21.053,1.138,21.266,21.266,0,0,1,8.5,8.381,22.693,22.693,0,0,1,2.519,11.851,3.439,3.439,0,0,1-.082.647,3.582,3.582,0,0,1-3.568,3.273H488.715a19.138,19.138,0,0,0,3.158,9.13,17.8,17.8,0,0,0,10.323,7.3,20.065,20.065,0,0,0,3.488.586,24.9,24.9,0,0,0,8.02-.629,28.031,28.031,0,0,0,7.273-2.963ZM491.07,475.945a17.931,17.931,0,0,0-1.7,4.2H521.3A13.469,13.469,0,0,0,514,469.371a16.467,16.467,0,0,0-14.727-.774,17.2,17.2,0,0,0-8.193,7.351l-.006,0Zm-27.127,24.792a3.567,3.567,0,0,1,3.555,6.186,35.186,35.186,0,0,1-9.121,3.718,31.919,31.919,0,0,1-10.286.825,27.253,27.253,0,0,1-4.748-.81,24.9,24.9,0,0,1-14.438-10.214,26.6,26.6,0,0,1-4.361-17.049,28.8,28.8,0,0,1,.862-5,25.078,25.078,0,0,1,2.422-5.958v-.014a24.357,24.357,0,0,1,11.608-10.4,23.58,23.58,0,0,1,21.053,1.138,21.266,21.266,0,0,1,8.505,8.381,22.693,22.693,0,0,1,2.519,11.851,3.439,3.439,0,0,1-.082.647,3.583,3.583,0,0,1-3.568,3.273H431.681a19.127,19.127,0,0,0,3.158,9.13,17.805,17.805,0,0,0,10.323,7.3,20.065,20.065,0,0,0,3.488.586,24.9,24.9,0,0,0,8.02-.629,28.031,28.031,0,0,0,7.273-2.963Zm-29.907-24.792a17.974,17.974,0,0,0-1.7,4.2h31.933a13.469,13.469,0,0,0-7.309-10.774,16.467,16.467,0,0,0-14.727-.774,17.2,17.2,0,0,0-8.193,7.351l-.006,0Zm-44.724-15.99a25.256,25.256,0,1,1-19.884,40.834v34.667a3.595,3.595,0,0,1-7.165,0V462.728a3.595,3.595,0,0,1,7.165,0v6.91a25.257,25.257,0,0,1,19.884-9.683Zm12.794,12.464a18.095,18.095,0,1,0,5.3,12.794,18.042,18.042,0,0,0-5.3-12.794Zm-63.056,0a18.095,18.095,0,1,0,5.3,12.794A18.038,18.038,0,0,0,339.05,472.419Z"/><path class="cls-3" d="M306.887,236.218h-48.04c-5.077,0-9.609,3.967-9.232,8.786l10.71,137.052c1.039,13.3,11.467,24.248,25.483,24.248H423.194c14.016,0,24.444-10.949,25.483-24.248L459.387,245c.377-4.819-4.155-8.786-9.233-8.786H402.115c-.855-15.336-5.871-49.042-32.918-61.958-11.5-5.492-18.322-5.123-28.862-.249-27.512,12.724-32.588,46.771-33.448,62.207Zm79.433,41.1a4,4,0,0,1-5.994,5.3c-8.059-9.1-19.71-12.51-31.277-8.584a28.817,28.817,0,0,0-11.554,7.207,16.976,16.976,0,0,0-4.951,9.8c-.667,6.989,5.035,12.2,10.554,15.385a143.107,143.107,0,0,0,14.293,6.827c6.151,2.684,12.758,5.481,18.294,9.3,5.433,3.746,10.555,8.67,13.262,14.789a22.915,22.915,0,0,1,.478,17.558,23.183,23.183,0,0,1-6.8,9.643c-5.616,4.863-13.247,7.58-20.527,8.587a51.791,51.791,0,0,1-24.334-2.461A41.647,41.647,0,0,1,320.2,358.847a4.005,4.005,0,0,1,6.059-5.24,33.676,33.676,0,0,0,14.2,9.527A43.694,43.694,0,0,0,361,365.182c5.753-.8,11.935-2.85,16.386-6.7a15.232,15.232,0,0,0,4.209-17.913c-2.086-4.718-6.285-8.55-10.463-11.43-5.034-3.471-11.333-6.1-16.94-8.541a150.088,150.088,0,0,1-15.07-7.236c-8.566-4.942-15.549-12.575-14.547-23.071a24.853,24.853,0,0,1,7.112-14.568,36.983,36.983,0,0,1,14.789-9.283c14.782-5.016,29.535-.759,39.845,10.883Zm-31.819-41.1H320.9c.734-12.361,4.51-37.1,22.554-47.859a21.919,21.919,0,0,1,22.215.066c17.948,10.795,21.71,35.458,22.443,47.793Z"/></svg>