<svg id="Layer_1" data-name="Layer 1" xmlns="http://www.w3.org/2000/svg" xmlns:xlink="http://www.w3.org/1999/xlink" viewBox="0 0 709 709"><defs><style>.cls-1{fill:#d8d8d8;}.cls-2{fill:#d2d2d1;}.cls-2,.cls-3,.cls-4,.cls-5,.cls-6{fill-rule:evenodd;}.cls-3{fill:#c51f44;}.cls-4{fill:#c51f43;}.cls-5{fill:url(#GradientFill_2);}.cls-6{fill:url(#GradientFill_2-2);}</style><linearGradient id="GradientFill_2" x1="327.467" y1="319.256" x2="327.467" y2="281.727" gradientUnits="userSpaceOnUse"><stop offset="0" stop-color="#fef3f7"/><stop offset="1" stop-color="#fff"/></linearGradient><linearGradient id="GradientFill_2-2" x1="394.116" y1="379.032" x2="394.116" y2="217.415" xlink:href="#GradientFill_2"/></defs><rect class="cls-1" x="56.725" y="56.725" width="595.549" height="595.549" rx="60.585"/><path class="cls-2" d="M73.13,74.936a60.4,60.4,0,0,1,43.3-18.211H590.81A60.585,60.585,0,0,1,651.4,117.31V591.69a60.43,60.43,0,0,1-20.009,44.991C581.574,586.869,162.13,163.937,73.13,74.936Z"/><path class="cls-3" d="M244.763,452.8H232.485a1.9,1.9,0,0,0-1.866,1.888V491.6a22.085,22.085,0,0,1-9.672,2,4.976,4.976,0,0,1-4.471-3.769l-.01.013a47.589,47.589,0,0,1-.581-7.5c-.175-3.564,0-7.153,0-10.409V454.69a1.9,1.9,0,0,0-1.895-1.888H201.711a1.9,1.9,0,0,0-1.863,1.888v24.5c0,3.624.058,7.1.365,10.309a20.953,20.953,0,0,0,24.618,18.161v0c.374-.072.742-.146,1.1-.231,3.645-.885,17.271-6.058,20.721-7.262V454.69a1.9,1.9,0,0,0-1.893-1.888ZM324,488.39a1.771,1.771,0,0,1-1.529,1.811l-.23.021c-.021,0-.043.006-.061.006h.027l-4.375.413a5.072,5.072,0,0,1-.921.085,4.925,4.925,0,1,1,0-9.849L324,480.2v8.189Zm52.443,12.044-.055-.021c.031.044.055.087.089.127.081.106.17.2.254.3l-14.479.014v-51.9a1.854,1.854,0,0,0-1.908-1.786H348.133a1.909,1.909,0,0,0-1.952,1.926V468c0,4.939.006,9.923,0,14.8v11.189h-.069l-.588-.036c-3.947-.128-5.136-1.359-5.49-3a36.984,36.984,0,0,1-.078-3.7V469.105c0-7.045-1.086-12.1-4.972-15.741-3.7-3.484-10.477-4.24-17.532-3.8-2.161.124-4.277.309-6.359.529v0c-4.337.462-5.619.694-7.71,1.009a4.929,4.929,0,0,0-4.094,3.681,4.75,4.75,0,0,0-.119,1.7l.507,10.625,0,.077H284.629a5.085,5.085,0,0,0-4.269,2.122c-3.381,4.756-9.37,13.484-9.378,13.488a1.164,1.164,0,0,1-.968.516,1.177,1.177,0,0,1-1.183-1.166V449.093a1.887,1.887,0,0,0-1.887-1.88h-12.3a1.9,1.9,0,0,0-1.864,1.889v63.361s0,2.024,1.888,2.024h12.254a1.9,1.9,0,0,0,1.895-1.887V502.084l0-.063a1.167,1.167,0,0,1,2.137-.651c2.684,3.408,6.3,8.237,8.66,10.915a6.035,6.035,0,0,0,4.134,2.2h16.075l-17.519-22.671,17.387-24.45v.02c5.319-.885,5.961-1.184,13.3-2.149,2.526-.333,8.624-1.025,9.978-.161,1.211.753,1.136,1.352,1.034,3.243-5.191.59-10.29.565-14.79,1.478-4.529.93-8.118,2.851-10.429,6.088-2.3,3.268-3.171,8.253-2.552,13.489a17.785,17.785,0,0,0,3.445,8.814,11.646,11.646,0,0,0,3.684,2.94,22.443,22.443,0,0,0,9.992,2.713,19.377,19.377,0,0,0,3.055-.152,24.839,24.839,0,0,0,2.946-.578,21.759,21.759,0,0,0,6.489-3.054l.271.226h0a20.961,20.961,0,0,0,19.41,3.665l.657-.2V508.5h.016v4.195a1.891,1.891,0,0,0,1.878,1.766H386.09a1.887,1.887,0,0,0,1.793-1.689c.026-.578.055-1.209.081-1.876v-4.885q1.122.15,2.241.2a19.907,19.907,0,0,0,3.058-.152,24.279,24.279,0,0,0,2.943-.581,21.761,21.761,0,0,0,6.493-3.051l.268.227h0a20.958,20.958,0,0,0,19.412,3.662l.388-.12v6.276a1.9,1.9,0,0,0,1.863,1.887h12.281a1.9,1.9,0,0,0,1.891-1.887l0-13.883a42.309,42.309,0,0,0,13.589-.49c8.662-2.018,13.681-8.506,14.875-17.894a56.152,56.152,0,0,0-.1-15.349c-1.433-9.682-5.336-16.314-15.184-17.574-9.694-1.243-19.33,1.919-28.025,5.968a3.085,3.085,0,0,0-.489.333,1.9,1.9,0,0,0-.7,1.465v41.3l-.388-.025c-3.948-.127-5.132-1.358-5.491-3-.116-.518-.077-2.886-.077-3.7V471.469c0-7.047-1.089-12.1-4.971-15.741-3.7-3.487-10.482-4.238-17.535-3.805-2.158.123-4.276.307-6.359.532h0c-4.336.461-5.616.693-7.71,1.006a4.93,4.93,0,0,0-4.09,3.682,4.694,4.694,0,0,0-.121,1.7l.51,10.627,0,.1.006.141s.377-.018,0,.046c5.321-.888,5.962-1.189,13.3-2.153,2.528-.332,8.625-1.026,9.979-.161,1.213.753,1.139,1.354,1.035,3.246-5.192.586-10.291.563-14.794,1.475-4.525.931-8.114,2.854-10.427,6.088-2.3,3.269-3.169,8.254-2.551,13.489a17.848,17.848,0,0,0,3.354,8.7Zm72.3-18.6c-1.994,1.238-5.161,1.079-8.331,1.077H438.7l.012-18.663a37.355,37.355,0,0,1,5.68-.922c6.334-.4,7.128,3.83,7.389,8.868.214,4.152-.277,7.945-3.043,9.64ZM551.9,467.18a5.083,5.083,0,0,0-4.268,2.122c-3.381,4.756-9.373,13.484-9.377,13.488a1.178,1.178,0,0,1-2.152-.65V449.093a1.89,1.89,0,0,0-1.89-1.88h-12.3a1.9,1.9,0,0,0-1.863,1.889v58.611l-.59-.035c-3.949-.129-5.134-1.362-5.491-3-.113-.517-.076-2.887-.076-3.708V482.824c0-7.047-1.088-12.1-4.971-15.739-3.7-3.489-10.481-4.24-17.533-3.8-2.159.121-4.279.306-6.362.528h0c-4.337.463-5.615.694-7.712,1.009a4.93,4.93,0,0,0-4.088,3.681,4.642,4.642,0,0,0-.12,1.7l.507,10.627,0,.1.01.142s.374-.02,0,.041c5.32-.885,5.962-1.184,13.3-2.149,2.528-.334,8.625-1.026,9.98-.16,1.209.751,1.136,1.351,1.032,3.244-5.192.587-10.29.561-14.792,1.474-4.527.931-8.119,2.853-10.427,6.09-2.3,3.269-3.17,8.249-2.553,13.487a17.8,17.8,0,0,0,3.444,8.815,7.518,7.518,0,0,0,5.274,2.58H534.2a1.9,1.9,0,0,0,1.894-1.887V502.084l0-.063a1.165,1.165,0,0,1,2.135-.651c2.68,3.408,6.3,8.237,8.659,10.915a6.037,6.037,0,0,0,4.137,2.2H567.1L549.58,491.816,567.1,467.18ZM490.849,494.6l7.084-.677v8.19a1.766,1.766,0,0,1-1.527,1.811l-.228.023c-.02,0-.042,0-.063,0h.03l-4.376.411a4.925,4.925,0,1,1-.92-9.763Zm-90-3.842a1.772,1.772,0,0,1-1.526,1.813l-.229.018c-.021,0-.044.007-.063.007h.029l-4.376.41a4.925,4.925,0,1,1-.918-9.763l7.083-.674v8.189Zm-229.128,10.1h-11.9a1.886,1.886,0,0,1-1.89-1.887l0-9.294a1.888,1.888,0,0,1,1.89-1.859h11.893c4.36,0,7.9,2.922,7.9,6.521s-3.535,6.519-7.9,6.519Zm-11.881-40.2h10.586v.009c4.165.181,7.474,3.012,7.474,6.478s-3.309,6.3-7.474,6.479v.01l-10.573,0a1.887,1.887,0,0,1-1.889-1.886l-.026-9.284a1.9,1.9,0,0,1,1.9-1.8Zm29.783,16.419a21.024,21.024,0,0,1,6.37,9.294c3.992,13.564-5.07,21.573-5.789,22.182-2.9,2.768-6.888,4.512-11.748,5.306a76.973,76.973,0,0,1-11.587.5h-23.1a1.885,1.885,0,0,1-1.866-1.887V448.7a1.887,1.887,0,0,1,1.887-1.89h21.6c7.774,0,14.452.167,19.575,2.885a15.671,15.671,0,0,1,8.679,13.362A19.749,19.749,0,0,1,189.621,477.071Z"/><path class="cls-4" d="M443.42,401.662c7.427,0,13.852-9.053,13.852-16.684v-174.2c0-7.494-6.425-16.263-13.852-16.263H265.983c-7.629,0-14.254,6.859-14.254,14.527V386.888c0,7.629,8.429,14.774,14.054,14.774Z"/><path class="cls-5" d="M331.194,325.118H315.75a2.511,2.511,0,0,1-2.513-2.518l0-12.965a2.521,2.521,0,0,1,2.515-2.479h15.44c5.805,0,8.979,4.02,8.979,8.813s-3.174,9.149-8.979,9.149Zm-15.427-53.87h15.427v.014a8.8,8.8,0,0,1,9.006,8.962c0,4.616-3.021,8.969-9.006,8.969v.017l-15.406,0a2.514,2.514,0,0,1-2.516-2.514l-.033-13.039a2.531,2.531,0,0,1,2.528-2.4Zm38.549,22.2a26.275,26.275,0,0,0,5.356-18.662c-.69-8.687-5.043-14.313-11.552-17.788-6.817-3.616-15.706-3.7-26.057-3.7H293.306a2.514,2.514,0,0,0-2.515,2.519v84.753a2.507,2.507,0,0,0,2.484,2.511h30.753c5.588,0,10.778.062,15.426-.675,6.462-1.051,11.769-3.375,15.637-7.054.96-.812,13.021-11.476,7.7-29.531A27.9,27.9,0,0,0,354.316,293.445Z"/><path class="cls-6" d="M421.107,325.118H389.556l-.006-69.472a2.512,2.512,0,0,0-2.5-2.354H369.61a2.509,2.509,0,0,0-2.5,2.354l.02,85.086a2.507,2.507,0,0,0,2.5,2.342H418.7a2.5,2.5,0,0,0,2.388-2.245c0-.171.015-.348.024-.526V340.3C421.136,339.676,421.107,325.118,421.107,325.118Z"/></svg>