<svg id="Layer_1" data-name="Layer 1" xmlns="http://www.w3.org/2000/svg" viewBox="0 0 709 709"><defs><style>.cls-1{fill:#d8d8d8;}.cls-2{fill:#d2d2d1;fill-rule:evenodd;}</style></defs><rect class="cls-1" x="56.7253" y="56.7253" width="595.5495" height="595.5495" rx="60.585"/><path class="cls-2" d="M73.13,74.9361a60.4028,60.4028,0,0,1,43.301-18.2108H590.81a60.585,60.585,0,0,1,60.585,60.5849V591.69a60.4309,60.4309,0,0,1-20.0094,44.9912C581.574,586.8691,162.13,163.9365,73.13,74.9361Z"/><path d="M430.8122,180.1069c55.52,1.8205,94.9242,38.5462,96.7273,93.8715,1.7431,53.4818.9122,107.0727.1188,160.6a94.0434,94.0434,0,0,1-20.3823,57.8272c-19.2653,24.3853-45.5038,34.988-75.5578,35.9035-41.05,1.25-153.8924.4436-169.076-1.4148-41.6233-5.0943-72.1152-33.6107-80.1855-74.7483-2.2294-11.3639-2.5274-179.4776-1.3358-188.6512,5.45-41.9541,33.63-72.4307,75.0039-80.5175C267.458,180.7617,426.2223,179.9564,430.8122,180.1069ZM278.7541,211.6336c-41.204,1.1775-66.7879,26.1293-67.5354,67.2762q-1.374,75.6189.0345,151.2794c.8055,40.5322,25.86,65.8106,66.3618,66.6866q76.0013,1.6437,152.0627.0376c40.242-.7851,65.5658-25.4012,66.5908-65.5863,1.3054-51.1771,1.1668-102.4308.0555-153.6168-.82-37.7788-21.7074-60.7354-59.3628-64.9536C409.6624,209.6986,303.95,210.9135,278.7541,211.6336Z"/><path d="M443.8149,354.1173c.0519,50.354-39.689,90.2055-89.9615,90.2119-50.29.0063-90.0548-39.8206-90.0154-90.157a89.3625,89.3625,0,0,1,89.57-89.82C403.8327,264.2616,443.7633,303.9084,443.8149,354.1173Zm-148.56.2262A58.5714,58.5714,0,1,0,353.631,295.77,58.6,58.6,0,0,0,295.2552,354.3435Z"/><path d="M448.021,239.5434a20.9882,20.9882,0,0,1,20.6013,21.8139c-.291,11.2123-10.096,20.5164-21.419,20.3249a21.5516,21.5516,0,0,1-20.72-21.1326A21.2151,21.2151,0,0,1,448.021,239.5434Z"/></svg>